<svg width="180" height="58" viewBox="0 0 180 58" fill="none" xmlns="http://www.w3.org/2000/svg">
<path fill-rule="evenodd" clip-rule="evenodd" d="M54.4706 17.5782L49.4611 30.8861C49.2859 31.2776 48.9006 31.5622 48.4802 31.5622H44.2063H33.0662L33.1012 32.8076C33.1012 32.9855 33.2413 33.1279 33.4165 33.1279H46.4834C47.0439 33.1279 47.4993 33.5904 47.4993 34.1953C47.4993 34.7647 47.0439 35.2272 46.4834 35.2272H33.4165C32.1203 35.2272 31.1044 34.1953 31.0343 32.8788L30.9993 30.5659L30.1585 17.3291C30.0885 16.5818 29.8432 14.696 29.7031 14.0555C29.6564 13.9131 29.6214 13.7589 29.598 13.5929C29.4579 12.8101 29.3878 12.4542 28.477 12.3475C26.5502 12.1696 24.9388 12.0984 24.9037 12.0984C24.3432 12.0628 23.9229 11.5647 23.9229 10.9953C23.9579 10.426 24.4133 9.99902 25.0088 9.99902C25.0789 9.99902 26.6904 10.0702 28.6872 10.2837C31.1394 10.5328 31.4547 12.3475 31.5948 13.2371C31.6182 13.3557 31.6415 13.4624 31.6649 13.5573C31.805 14.1266 31.9802 15.3364 32.0853 16.1904H53.4897C53.8401 16.1904 54.1553 16.3683 54.3305 16.6174C54.5407 16.9021 54.5757 17.2579 54.4706 17.5782ZM52.0184 18.2542H46.7286L46.4483 20.5315H51.1426L52.0184 18.2542ZM50.4069 22.6309H46.2031L45.9579 24.8371H49.5662L50.4069 22.6309ZM43.3305 29.4984L43.6458 26.9009H39.1617V29.4984H43.3305ZM32.7158 24.8371H37.0948V22.6309H32.5757L32.7158 24.8371ZM32.9961 29.4628H37.1299V26.9009H32.856L32.9961 29.4628ZM43.891 24.8015L44.1713 22.5953H39.1267V24.8015H43.891ZM44.4165 20.5315L44.6967 18.2542H39.1267V20.5315H44.4165ZM32.2955 18.2542L32.4356 20.5315H37.0598V18.2542H32.2955ZM48.7604 26.9009H45.6776L45.3623 29.4628H47.8146L48.7604 26.9009Z" fill="#111111"/>
<path fill-rule="evenodd" clip-rule="evenodd" d="M36.6394 38.8212C36.6394 40.4225 35.3782 41.7034 33.8018 41.7034C32.2604 41.7034 30.9993 40.4225 30.9993 38.8212C30.9993 37.2556 32.2604 35.9746 33.8018 35.9746C35.3782 35.9746 36.6394 37.2556 36.6394 38.8212ZM34.6075 38.8212C34.6075 38.3942 34.2572 38.0384 33.8018 38.0384C33.3814 38.0384 33.0311 38.3942 33.0311 38.8212C33.0311 39.2838 33.3814 39.6396 33.8018 39.6396C34.2572 39.6396 34.6075 39.2838 34.6075 38.8212Z" fill="#111111"/>
<path fill-rule="evenodd" clip-rule="evenodd" d="M48.6904 38.8212C48.6904 40.4225 47.4293 41.7034 45.8879 41.7034C44.3114 41.7034 43.0503 40.4225 43.0503 38.8212C43.0503 37.2556 44.3114 35.9746 45.8879 35.9746C47.4293 35.9746 48.6904 37.2556 48.6904 38.8212ZM46.6586 38.8212C46.6586 38.3942 46.3083 38.0384 45.8879 38.0384C45.4325 38.0384 45.0821 38.3942 45.0821 38.8212C45.0821 39.2838 45.4325 39.6396 45.8879 39.6396C46.3083 39.6396 46.6586 39.2838 46.6586 38.8212Z" fill="#111111"/>
<path d="M41.4389 39.07H38.7064L40.423 46.6491L12.5026 53.1252L3.04399 10.9595L30.9293 4.48345L32.5758 11.8135H35.3083L33.1363 2.20615C32.8561 0.854002 31.5249 1.41114e-05 30.1937 0.284677L1.92297 6.8675C0.591764 7.15216 -0.249 8.50431 0.0662862 9.85646L10.4007 55.9718C10.716 57.3239 12.0472 58.1779 13.3784 57.8577L41.6491 51.3104C42.9803 50.9902 43.8211 49.6381 43.5058 48.2859L41.4389 39.07Z" fill="#FF6E00"/>
<path d="M27.5664 20.4247H23.3276C22.697 20.4247 22.2065 19.891 22.2065 19.286C22.2065 18.6456 22.697 18.1118 23.3276 18.1118H27.5664C28.197 18.1118 28.7225 18.6456 28.7225 19.286C28.7225 19.891 28.197 20.4247 27.5664 20.4247Z" fill="#FF6E00"/>
<path d="M27.5664 28.8222H23.3276C22.697 28.8222 22.2065 28.324 22.2065 27.6835C22.2065 27.043 22.697 26.5093 23.3276 26.5093H27.5664C28.197 26.5093 28.7225 27.043 28.7225 27.6835C28.7225 28.324 28.197 28.8222 27.5664 28.8222Z" fill="#FF6E00"/>
<path d="M27.4262 24.6234H18.6332C18.0027 24.6234 17.5122 24.1253 17.5122 23.4848C17.5122 22.8443 18.0027 22.3105 18.6332 22.3105H27.4262C28.0218 22.3105 28.5472 22.8443 28.5472 23.4848C28.5472 24.1253 28.0218 24.6234 27.4262 24.6234Z" fill="#FF6E00"/>
<path d="M75.1388 43L65.9023 10.2727H72.2784L78.1751 34.3228H78.4787L84.7749 10.2727H90.5756L96.8878 34.3388H97.1754L103.072 10.2727H109.448L100.212 43H94.3629L87.8111 20.0366H87.5554L80.9876 43H75.1388ZM121.665 43.4794C119.204 43.4794 117.079 42.968 115.289 41.9453C113.51 40.9119 112.141 39.4524 111.182 37.5668C110.223 35.6705 109.744 33.4386 109.744 30.8711C109.744 28.3462 110.223 26.1303 111.182 24.2234C112.151 22.3058 113.504 20.8143 115.241 19.7489C116.977 18.6729 119.018 18.1349 121.361 18.1349C122.874 18.1349 124.302 18.38 125.644 18.87C126.997 19.3494 128.19 20.0952 129.224 21.1072C130.268 22.1193 131.088 23.4084 131.684 24.9744C132.281 26.5298 132.579 28.3835 132.579 30.5355V32.3093H112.46V28.4102H127.034C127.024 27.3022 126.784 26.3168 126.315 25.4538C125.846 24.5803 125.191 23.8931 124.35 23.3924C123.519 22.8917 122.549 22.6413 121.441 22.6413C120.259 22.6413 119.22 22.929 118.325 23.5043C117.43 24.0689 116.732 24.8146 116.232 25.7415C115.742 26.6577 115.491 27.6644 115.481 28.7617V32.1655C115.481 33.593 115.742 34.8182 116.264 35.8409C116.786 36.853 117.515 37.6307 118.453 38.174C119.39 38.7067 120.488 38.973 121.745 38.973C122.586 38.973 123.348 38.8558 124.03 38.6214C124.712 38.3764 125.303 38.0195 125.804 37.5508C126.305 37.082 126.683 36.5014 126.938 35.8089L132.34 36.4162C131.999 37.8437 131.349 39.0902 130.39 40.1555C129.442 41.2102 128.227 42.0305 126.747 42.6165C125.266 43.1918 123.572 43.4794 121.665 43.4794ZM144.536 43.4954C142.981 43.4954 141.58 43.2184 140.334 42.6644C139.098 42.0998 138.118 41.2688 137.393 40.1715C136.68 39.0742 136.323 37.7212 136.323 36.1126C136.323 34.7276 136.578 33.5824 137.09 32.6768C137.601 31.7713 138.299 31.0469 139.183 30.5036C140.067 29.9602 141.063 29.5501 142.171 29.2731C143.29 28.9854 144.446 28.7777 145.639 28.6499C147.077 28.5007 148.244 28.3675 149.139 28.2504C150.034 28.1225 150.684 27.9308 151.088 27.6751C151.504 27.4087 151.712 26.9986 151.712 26.4446V26.3487C151.712 25.1449 151.355 24.2127 150.641 23.5522C149.927 22.8917 148.899 22.5614 147.557 22.5614C146.14 22.5614 145.016 22.8704 144.185 23.4883C143.365 24.1062 142.811 24.8359 142.523 25.6776L137.122 24.9105C137.548 23.419 138.251 22.1726 139.231 21.1712C140.211 20.1591 141.41 19.4027 142.827 18.902C144.244 18.3906 145.81 18.1349 147.525 18.1349C148.707 18.1349 149.885 18.2734 151.056 18.5504C152.228 18.8274 153.299 19.2855 154.268 19.9247C155.238 20.5533 156.016 21.4109 156.601 22.4975C157.198 23.5842 157.496 24.9425 157.496 26.5724V43H151.935V39.6282H151.744C151.392 40.31 150.897 40.9492 150.257 41.5458C149.629 42.1317 148.835 42.6058 147.876 42.968C146.928 43.3196 145.815 43.4954 144.536 43.4954ZM146.039 39.2447C147.2 39.2447 148.207 39.0156 149.059 38.5575C149.911 38.0888 150.566 37.4709 151.024 36.7038C151.493 35.9368 151.728 35.1005 151.728 34.195V31.3026C151.546 31.4517 151.237 31.5902 150.801 31.718C150.375 31.8459 149.895 31.9577 149.362 32.0536C148.83 32.1495 148.302 32.2347 147.78 32.3093C147.258 32.3839 146.806 32.4478 146.422 32.5011C145.559 32.6183 144.787 32.81 144.105 33.0763C143.423 33.3427 142.885 33.7156 142.491 34.195C142.097 34.6637 141.9 35.271 141.9 36.0167C141.9 37.082 142.289 37.8864 143.066 38.4297C143.844 38.973 144.835 39.2447 146.039 39.2447ZM163.313 43V18.4545H168.922V22.5455H169.178C169.625 21.1286 170.392 20.0366 171.479 19.2695C172.576 18.4918 173.828 18.103 175.234 18.103C175.554 18.103 175.911 18.119 176.305 18.1509C176.71 18.1722 177.045 18.2095 177.312 18.2628V23.5842C177.067 23.4989 176.678 23.4244 176.145 23.3604C175.623 23.2859 175.117 23.2486 174.627 23.2486C173.572 23.2486 172.624 23.4776 171.783 23.9357C170.952 24.3832 170.296 25.0064 169.817 25.8054C169.338 26.6044 169.098 27.5259 169.098 28.57V43H163.313Z" fill="#111111"/>
</svg>
